<?xml version="1.0" encoding="utf-8"?>
<!-- Generator: Adobe Illustrator 18.1.1, SVG Export Plug-In . SVG Version: 6.00 Build 0)  -->
<!DOCTYPE svg PUBLIC "-//W3C//DTD SVG 1.1//EN" "http://www.w3.org/Graphics/SVG/1.1/DTD/svg11.dtd">
<svg version="1.1" id="Layer_1" xmlns="http://www.w3.org/2000/svg" xmlns:xlink="http://www.w3.org/1999/xlink" x="0px" y="0px"
	 viewBox="0 0 256 256" enable-background="new 0 0 256 256" xml:space="preserve">
<rect fill="#00AEEF" width="256" height="256"/>
<g>
	<g>
		<path fill="#F5F4EE" d="M146.1,202.6c0,2.2-1.8,3.9-3.9,3.9l0,0c-2.2,0-3.9-1.8-3.9-3.9V53.4c0-2.2,1.8-3.9,3.9-3.9l0,0
			c2.2,0,3.9,1.8,3.9,3.9V202.6z"/>
		<path fill="#F5F4EE" d="M131.8,218.3c0,2.2-1.8,3.9-3.9,3.9l0,0c-2.2,0-3.9-1.8-3.9-3.9V37.7c0-2.2,1.8-3.9,3.9-3.9l0,0
			c2.2,0,3.9,1.8,3.9,3.9V218.3z"/>
		<path fill="#F5F4EE" d="M89.4,186.9c0,2.2-1.8,3.9-3.9,3.9l0,0c-2.2,0-3.9-1.8-3.9-3.9V69.1c0-2.2,1.8-3.9,3.9-3.9l0,0
			c2.2,0,3.9,1.8,3.9,3.9V186.9z"/>
		<path fill="#F5F4EE" d="M117.8,194.8c0,2.2-1.8,3.9-3.9,3.9l0,0c-2.2,0-3.9-1.8-3.9-3.9V61.2c0-2.2,1.8-3.9,3.9-3.9l0,0
			c2.2,0,3.9,1.8,3.9,3.9V194.8z"/>
		<path fill="#F5F4EE" d="M103.7,179.1c0,2.2-1.8,3.9-3.9,3.9l0,0c-2.2,0-3.9-1.8-3.9-3.9V76.9c0-2.2,1.8-3.9,3.9-3.9l0,0
			c2.2,0,3.9,1.8,3.9,3.9V179.1z"/>
		<path fill="#F5F4EE" d="M75.4,163.3c0,2.2-1.8,3.9-3.9,3.9l0,0c-2.2,0-3.9-1.8-3.9-3.9V92.7c0-2.2,1.8-3.9,3.9-3.9l0,0
			c2.2,0,3.9,1.8,3.9,3.9V163.3z"/>
		<path fill="#F5F4EE" d="M61.2,147.6c0,2.2-1.8,3.9-3.9,3.9l0,0c-2.2,0-3.9-1.8-3.9-3.9v-39.3c0-2.2,1.8-3.9,3.9-3.9l0,0
			c2.2,0,3.9,1.8,3.9,3.9V147.6z"/>
		<path fill="#F5F4EE" d="M47.1,139.8c0,2.2-1.8,3.9-3.9,3.9l0,0c-2.2,0-3.9-1.8-3.9-3.9v-23.6c0-2.2,1.8-3.9,3.9-3.9l0,0
			c2.2,0,3.9,1.8,3.9,3.9V139.8z"/>
		<path fill="#F5F4EE" d="M160.1,183c0,2.2-1.8,3.9-3.9,3.9l0,0c-2.2,0-3.9-1.8-3.9-3.9V73c0-2.2,1.8-3.9,3.9-3.9l0,0
			c2.2,0,3.9,1.8,3.9,3.9V183z"/>
		<path fill="#F5F4EE" d="M166.4,186.9c0,2.2,1.8,3.9,3.9,3.9l0,0c2.2,0,3.9-1.8,3.9-3.9V69.1c0-2.2-1.8-3.9-3.9-3.9l0,0
			c-2.2,0-3.9,1.8-3.9,3.9V186.9z"/>
		<path fill="#F5F4EE" d="M180.5,163.3c0,2.2,1.8,3.9,3.9,3.9l0,0c2.2,0,3.9-1.8,3.9-3.9V92.7c0-2.2-1.8-3.9-3.9-3.9l0,0
			c-2.2,0-3.9,1.8-3.9,3.9V163.3z"/>
		<path fill="#F5F4EE" d="M194.7,147.6c0,2.2,1.8,3.9,3.9,3.9l0,0c2.2,0,3.9-1.8,3.9-3.9v-39.3c0-2.2-1.8-3.9-3.9-3.9l0,0
			c-2.2,0-3.9,1.8-3.9,3.9V147.6z"/>
		<path fill="#F5F4EE" d="M208.8,139.8c0,2.2,1.8,3.9,3.9,3.9l0,0c2.2,0,3.9-1.8,3.9-3.9v-23.6c0-2.2-1.8-3.9-3.9-3.9l0,0
			c-2.2,0-3.9,1.8-3.9,3.9V139.8z"/>
		<path fill="#F5F4EE" d="M33,135.9c0,2.2-1.8,3.9-3.9,3.9l0,0c-2.2,0-3.9-1.8-3.9-3.9v-15.7c0-2.2,1.8-3.9,3.9-3.9l0,0
			c2.2,0,3.9,1.8,3.9,3.9V135.9z"/>
		<path fill="#F5F4EE" d="M230.8,135.9c0,2.2-1.8,3.9-3.9,3.9l0,0c-2.2,0-3.9-1.8-3.9-3.9v-15.7c0-2.2,1.8-3.9,3.9-3.9l0,0
			c2.2,0,3.9,1.8,3.9,3.9V135.9z"/>
	</g>
</g>
</svg>
